<?xml version="1.0" encoding="UTF-8" standalone="no"?>
<!DOCTYPE svg PUBLIC "-//W3C//DTD SVG 1.1//EN"
 "http://www.w3.org/Graphics/SVG/1.1/DTD/svg11.dtd">
<!-- Generated by graphviz version 2.43.0 (0)
 -->
<!-- Title: MCD Pages: 1 -->
<svg width="1652pt" height="635pt"
 viewBox="0.00 0.00 1652.21 635.00" xmlns="http://www.w3.org/2000/svg" xmlns:xlink="http://www.w3.org/1999/xlink">
<g id="graph0" class="graph" transform="scale(1 1) rotate(0) translate(4 631)">
<title>MCD</title>
<polygon fill="white" stroke="transparent" points="-4,4 -4,-631 1648.21,-631 1648.21,4 -4,4"/>
<text text-anchor="middle" x="822.11" y="-605.4" font-family="Helvetica,sans-Serif" font-size="22.00">MCD — Help Me Stage</text>
<!-- UTILISATEUR -->
<g id="node1" class="node">
<title>UTILISATEUR</title>
<polygon fill="#dbeafe" stroke="#1e3a8a" stroke-width="1.4" points="0,-240.5 0,-332.5 188,-332.5 188,-240.5 0,-240.5"/>
<text text-anchor="middle" x="43.5" y="-283.7" font-family="Helvetica,sans-Serif" font-size="11.00">UTILISATEUR</text>
<polyline fill="none" stroke="#1e3a8a" stroke-width="1.4" points="87,-240.5 87,-332.5 "/>
<text text-anchor="start" x="95" y="-319.7" font-family="Helvetica,sans-Serif" font-size="11.00">id</text>
<text text-anchor="start" x="95" y="-307.7" font-family="Helvetica,sans-Serif" font-size="11.00">nom</text>
<text text-anchor="start" x="95" y="-295.7" font-family="Helvetica,sans-Serif" font-size="11.00">prenom</text>
<text text-anchor="start" x="95" y="-283.7" font-family="Helvetica,sans-Serif" font-size="11.00">email (U)</text>
<text text-anchor="start" x="95" y="-271.7" font-family="Helvetica,sans-Serif" font-size="11.00">password_hash</text>
<text text-anchor="start" x="95" y="-259.7" font-family="Helvetica,sans-Serif" font-size="11.00">role</text>
<text text-anchor="start" x="95" y="-247.7" font-family="Helvetica,sans-Serif" font-size="11.00">created_at</text>
</g>
<!-- A_EST -->
<g id="node9" class="node">
<title>A_EST</title>
<ellipse fill="#fef3c7" stroke="#92400e" stroke-width="1.2" cx="336.3" cy="-389.5" rx="50.41" ry="22.76"/>
<text text-anchor="middle" x="336.3" y="-392.7" font-family="Helvetica,sans-Serif" font-size="11.00">EST</text>
<text text-anchor="middle" x="336.3" y="-380.7" font-family="Helvetica,sans-Serif" font-size="11.00">(héritage)</text>
</g>
<!-- UTILISATEUR&#45;&#45;A_EST -->
<g id="edge1" class="edge">
<title>UTILISATEUR&#45;&#45;A_EST</title>
<path fill="none" stroke="#444444" d="M188.25,-326.47C227.17,-343.15 270.05,-361.53 299.42,-374.12"/>
<text text-anchor="middle" x="287.92" y="-366.12" font-family="Helvetica,sans-Serif" font-size="10.00">(1,1)</text>
<text text-anchor="middle" x="199.75" y="-318.47" font-family="Helvetica,sans-Serif" font-size="10.00">(0,1)</text>
</g>
<!-- A_GERER -->
<g id="node11" class="node">
<title>A_GERER</title>
<ellipse fill="#fef3c7" stroke="#92400e" stroke-width="1.2" cx="621.09" cy="-548.5" rx="59.29" ry="22.76"/>
<text text-anchor="middle" x="621.09" y="-551.7" font-family="Helvetica,sans-Serif" font-size="11.00">GÉRER</text>
<text text-anchor="middle" x="621.09" y="-539.7" font-family="Helvetica,sans-Serif" font-size="11.00">(created_at)</text>
</g>
<!-- UTILISATEUR&#45;&#45;A_GERER -->
<g id="edge5" class="edge">
<title>UTILISATEUR&#45;&#45;A_GERER</title>
<path fill="none" stroke="#444444" d="M140.33,-332.69C173.1,-363.9 219.75,-404.08 267,-430.5 367,-486.4 497.79,-521.46 568.8,-537.74"/>
<text text-anchor="middle" x="127.83" y="-335.69" font-family="Helvetica,sans-Serif" font-size="10.00">(0,N)</text>
</g>
<!-- A_COMMENTER -->
<g id="node17" class="node">
<title>A_COMMENTER</title>
<ellipse fill="#fde68a" stroke="#92400e" stroke-width="1.2" cx="336.3" cy="-286.5" rx="69.09" ry="31.23"/>
<text text-anchor="middle" x="336.3" y="-295.7" font-family="Helvetica,sans-Serif" font-size="11.00">COMMENTER</text>
<text text-anchor="middle" x="336.3" y="-283.7" font-family="Helvetica,sans-Serif" font-size="11.00">(commentaire,</text>
<text text-anchor="middle" x="336.3" y="-271.7" font-family="Helvetica,sans-Serif" font-size="11.00">created_at)</text>
</g>
<!-- UTILISATEUR&#45;&#45;A_COMMENTER -->
<g id="edge17" class="edge">
<title>UTILISATEUR&#45;&#45;A_COMMENTER</title>
<path fill="none" stroke="#444444" d="M188.25,-286.5C214.37,-286.5 242.28,-286.5 266.69,-286.5"/>
<text text-anchor="middle" x="200.75" y="-278.5" font-family="Helvetica,sans-Serif" font-size="10.00">(0,N)</text>
</g>
<!-- A_CONSENTIR -->
<g id="node18" class="node">
<title>A_CONSENTIR</title>
<ellipse fill="#fef3c7" stroke="#92400e" stroke-width="1.2" cx="336.3" cy="-179.5" rx="48.21" ry="18"/>
<text text-anchor="middle" x="336.3" y="-176.7" font-family="Helvetica,sans-Serif" font-size="11.00">CONSENTIR</text>
</g>
<!-- UTILISATEUR&#45;&#45;A_CONSENTIR -->
<g id="edge19" class="edge">
<title>UTILISATEUR&#45;&#45;A_CONSENTIR</title>
<path fill="none" stroke="#444444" d="M188.25,-244.98C229.54,-226.59 275.3,-206.21 304.64,-193.15"/>
<text text-anchor="middle" x="200.75" y="-236.98" font-family="Helvetica,sans-Serif" font-size="10.00">(0,N)</text>
</g>
<!-- A_DEMANDER -->
<g id="node19" class="node">
<title>A_DEMANDER</title>
<ellipse fill="#fef3c7" stroke="#92400e" stroke-width="1.2" cx="336.3" cy="-85.5" rx="48.21" ry="18"/>
<text text-anchor="middle" x="336.3" y="-82.7" font-family="Helvetica,sans-Serif" font-size="11.00">DEMANDER</text>
</g>
<!-- UTILISATEUR&#45;&#45;A_DEMANDER -->
<g id="edge21" class="edge">
<title>UTILISATEUR&#45;&#45;A_DEMANDER</title>
<path fill="none" stroke="#444444" d="M150.13,-240.39C203.06,-196.11 280.08,-131.68 315.78,-101.82"/>
<text text-anchor="middle" x="137.63" y="-232.39" font-family="Helvetica,sans-Serif" font-size="10.00">(0,N)</text>
</g>
<!-- ETUDIANT -->
<g id="node2" class="node">
<title>ETUDIANT</title>
<polygon fill="#bfdbfe" stroke="#1e3a8a" stroke-width="1.4" points="543.59,-375.5 543.59,-431.5 698.59,-431.5 698.59,-375.5 543.59,-375.5"/>
<text text-anchor="middle" x="579.59" y="-400.7" font-family="Helvetica,sans-Serif" font-size="11.00">ÉTUDIANT</text>
<polyline fill="none" stroke="#1e3a8a" stroke-width="1.4" points="615.59,-375.5 615.59,-431.5 "/>
<text text-anchor="start" x="623.59" y="-418.7" font-family="Helvetica,sans-Serif" font-size="11.00">id</text>
<text text-anchor="start" x="623.59" y="-406.7" font-family="Helvetica,sans-Serif" font-size="11.00">formation</text>
<text text-anchor="start" x="623.59" y="-394.7" font-family="Helvetica,sans-Serif" font-size="11.00">status</text>
<text text-anchor="start" x="623.59" y="-382.7" font-family="Helvetica,sans-Serif" font-size="11.00">last_activity</text>
</g>
<!-- A_APPARTENIR -->
<g id="node10" class="node">
<title>A_APPARTENIR</title>
<ellipse fill="#fef3c7" stroke="#92400e" stroke-width="1.2" cx="907.3" cy="-515.5" rx="49.82" ry="18"/>
<text text-anchor="middle" x="907.3" y="-512.7" font-family="Helvetica,sans-Serif" font-size="11.00">APPARTENIR</text>
</g>
<!-- ETUDIANT&#45;&#45;A_APPARTENIR -->
<g id="edge3" class="edge">
<title>ETUDIANT&#45;&#45;A_APPARTENIR</title>
<path fill="none" stroke="#444444" d="M693.44,-431.62C750.83,-454.23 828.89,-484.99 872.77,-502.28"/>
<text text-anchor="middle" x="681.94" y="-434.62" font-family="Helvetica,sans-Serif" font-size="10.00">(0,1)</text>
</g>
<!-- A_MAITRISER -->
<g id="node14" class="node">
<title>A_MAITRISER</title>
<ellipse fill="#fef3c7" stroke="#92400e" stroke-width="1.2" cx="1366.11" cy="-401.5" rx="45.2" ry="18"/>
<text text-anchor="middle" x="1366.11" y="-398.7" font-family="Helvetica,sans-Serif" font-size="11.00">MAÎTRISER</text>
</g>
<!-- ETUDIANT&#45;&#45;A_MAITRISER -->
<g id="edge11" class="edge">
<title>ETUDIANT&#45;&#45;A_MAITRISER</title>
<path fill="none" stroke="#444444" d="M699.03,-404.39C739.9,-404.82 790.97,-405.29 836.59,-405.5 1016.21,-406.34 1230.16,-403.56 1320.92,-402.2"/>
<text text-anchor="middle" x="711.53" y="-396.39" font-family="Helvetica,sans-Serif" font-size="10.00">(0,N)</text>
</g>
<!-- A_POSTULER -->
<g id="node15" class="node">
<title>A_POSTULER</title>
<ellipse fill="#fde68a" stroke="#92400e" stroke-width="1.2" cx="907.3" cy="-274.5" rx="70.92" ry="31.23"/>
<text text-anchor="middle" x="907.3" y="-283.7" font-family="Helvetica,sans-Serif" font-size="11.00">POSTULER</text>
<text text-anchor="middle" x="907.3" y="-271.7" font-family="Helvetica,sans-Serif" font-size="11.00">(status, lettre,</text>
<text text-anchor="middle" x="907.3" y="-259.7" font-family="Helvetica,sans-Serif" font-size="11.00">cv, created_at)</text>
</g>
<!-- ETUDIANT&#45;&#45;A_POSTULER -->
<g id="edge13" class="edge">
<title>ETUDIANT&#45;&#45;A_POSTULER</title>
<path fill="none" stroke="#444444" d="M698.64,-380.22C718.13,-373.56 738.86,-365.82 757.59,-357.5 795.42,-340.69 836.35,-317.44 865.67,-299.83"/>
<text text-anchor="middle" x="711.14" y="-372.22" font-family="Helvetica,sans-Serif" font-size="10.00">(0,N)</text>
</g>
<!-- A_SOUHAITER -->
<g id="node16" class="node">
<title>A_SOUHAITER</title>
<ellipse fill="#fef3c7" stroke="#92400e" stroke-width="1.2" cx="907.3" cy="-364.5" rx="59.29" ry="22.76"/>
<text text-anchor="middle" x="907.3" y="-367.7" font-family="Helvetica,sans-Serif" font-size="11.00">SOUHAITER</text>
<text text-anchor="middle" x="907.3" y="-355.7" font-family="Helvetica,sans-Serif" font-size="11.00">(created_at)</text>
</g>
<!-- ETUDIANT&#45;&#45;A_SOUHAITER -->
<g id="edge15" class="edge">
<title>ETUDIANT&#45;&#45;A_SOUHAITER</title>
<path fill="none" stroke="#444444" d="M698.63,-393C746.8,-386.39 807.85,-378.01 851.26,-372.05"/>
<text text-anchor="middle" x="711.13" y="-385" font-family="Helvetica,sans-Serif" font-size="10.00">(0,N)</text>
</g>
<!-- PROMOTION -->
<g id="node3" class="node">
<title>PROMOTION</title>
<polygon fill="#dbeafe" stroke="#1e3a8a" stroke-width="1.4" points="1057.01,-526.5 1057.01,-594.5 1242.01,-594.5 1242.01,-526.5 1057.01,-526.5"/>
<text text-anchor="middle" x="1100.01" y="-557.7" font-family="Helvetica,sans-Serif" font-size="11.00">PROMOTION</text>
<polyline fill="none" stroke="#1e3a8a" stroke-width="1.4" points="1143.01,-526.5 1143.01,-594.5 "/>
<text text-anchor="start" x="1151.01" y="-581.7" font-family="Helvetica,sans-Serif" font-size="11.00">id</text>
<text text-anchor="start" x="1151.01" y="-569.7" font-family="Helvetica,sans-Serif" font-size="11.00">label (U)</text>
<text text-anchor="start" x="1151.01" y="-557.7" font-family="Helvetica,sans-Serif" font-size="11.00">academic_year</text>
<text text-anchor="start" x="1151.01" y="-545.7" font-family="Helvetica,sans-Serif" font-size="11.00">is_active</text>
<text text-anchor="start" x="1151.01" y="-533.7" font-family="Helvetica,sans-Serif" font-size="11.00">created_at</text>
</g>
<!-- ENTREPRISE -->
<g id="node4" class="node">
<title>ENTREPRISE</title>
<polygon fill="#dbeafe" stroke="#1e3a8a" stroke-width="1.4" points="535.09,-234.5 535.09,-338.5 707.09,-338.5 707.09,-234.5 535.09,-234.5"/>
<text text-anchor="middle" x="576.59" y="-283.7" font-family="Helvetica,sans-Serif" font-size="11.00">ENTREPRISE</text>
<polyline fill="none" stroke="#1e3a8a" stroke-width="1.4" points="618.09,-234.5 618.09,-338.5 "/>
<text text-anchor="start" x="626.09" y="-325.7" font-family="Helvetica,sans-Serif" font-size="11.00">id</text>
<text text-anchor="start" x="626.09" y="-313.7" font-family="Helvetica,sans-Serif" font-size="11.00">nom (U)</text>
<text text-anchor="start" x="626.09" y="-301.7" font-family="Helvetica,sans-Serif" font-size="11.00">siret</text>
<text text-anchor="start" x="626.09" y="-289.7" font-family="Helvetica,sans-Serif" font-size="11.00">secteur</text>
<text text-anchor="start" x="626.09" y="-277.7" font-family="Helvetica,sans-Serif" font-size="11.00">ville</text>
<text text-anchor="start" x="626.09" y="-265.7" font-family="Helvetica,sans-Serif" font-size="11.00">site_web</text>
<text text-anchor="start" x="626.09" y="-253.7" font-family="Helvetica,sans-Serif" font-size="11.00">note</text>
<text text-anchor="start" x="626.09" y="-241.7" font-family="Helvetica,sans-Serif" font-size="11.00">commentaire</text>
</g>
<!-- A_PROPOSER -->
<g id="node12" class="node">
<title>A_PROPOSER</title>
<ellipse fill="#fef3c7" stroke="#92400e" stroke-width="1.2" cx="907.3" cy="-189.5" rx="46.11" ry="18"/>
<text text-anchor="middle" x="907.3" y="-186.7" font-family="Helvetica,sans-Serif" font-size="11.00">PROPOSER</text>
</g>
<!-- ENTREPRISE&#45;&#45;A_PROPOSER -->
<g id="edge7" class="edge">
<title>ENTREPRISE&#45;&#45;A_PROPOSER</title>
<path fill="none" stroke="#444444" d="M707.37,-257.4C762.47,-238.59 831.22,-215.13 871.78,-201.28"/>
<text text-anchor="middle" x="719.87" y="-249.4" font-family="Helvetica,sans-Serif" font-size="10.00">(0,N)</text>
</g>
<!-- OFFRE -->
<g id="node5" class="node">
<title>OFFRE</title>
<polygon fill="#dbeafe" stroke="#1e3a8a" stroke-width="1.4" points="1070.51,-261.5 1070.51,-353.5 1228.51,-353.5 1228.51,-261.5 1070.51,-261.5"/>
<text text-anchor="middle" x="1096.51" y="-304.7" font-family="Helvetica,sans-Serif" font-size="11.00">OFFRE</text>
<polyline fill="none" stroke="#1e3a8a" stroke-width="1.4" points="1122.51,-261.5 1122.51,-353.5 "/>
<text text-anchor="start" x="1130.51" y="-340.7" font-family="Helvetica,sans-Serif" font-size="11.00">id</text>
<text text-anchor="start" x="1130.51" y="-328.7" font-family="Helvetica,sans-Serif" font-size="11.00">titre</text>
<text text-anchor="start" x="1130.51" y="-316.7" font-family="Helvetica,sans-Serif" font-size="11.00">lieu</text>
<text text-anchor="start" x="1130.51" y="-304.7" font-family="Helvetica,sans-Serif" font-size="11.00">duree_semaines</text>
<text text-anchor="start" x="1130.51" y="-292.7" font-family="Helvetica,sans-Serif" font-size="11.00">remuneration</text>
<text text-anchor="start" x="1130.51" y="-280.7" font-family="Helvetica,sans-Serif" font-size="11.00">description</text>
<text text-anchor="start" x="1130.51" y="-268.7" font-family="Helvetica,sans-Serif" font-size="11.00">created_at</text>
</g>
<!-- A_REQUERIR -->
<g id="node13" class="node">
<title>A_REQUERIR</title>
<ellipse fill="#fef3c7" stroke="#92400e" stroke-width="1.2" cx="1366.11" cy="-322.5" rx="43.8" ry="18"/>
<text text-anchor="middle" x="1366.11" y="-319.7" font-family="Helvetica,sans-Serif" font-size="11.00">REQUÉRIR</text>
</g>
<!-- OFFRE&#45;&#45;A_REQUERIR -->
<g id="edge9" class="edge">
<title>OFFRE&#45;&#45;A_REQUERIR</title>
<path fill="none" stroke="#444444" d="M1228.6,-312.96C1260.36,-315.18 1295.81,-317.66 1322.63,-319.53"/>
<text text-anchor="middle" x="1241.1" y="-304.96" font-family="Helvetica,sans-Serif" font-size="10.00">(0,N)</text>
</g>
<!-- COMPETENCE -->
<g id="node6" class="node">
<title>COMPETENCE</title>
<polygon fill="#dbeafe" stroke="#1e3a8a" stroke-width="1.4" points="1490.21,-340.5 1490.21,-376.5 1644.21,-376.5 1644.21,-340.5 1490.21,-340.5"/>
<text text-anchor="middle" x="1536.21" y="-355.7" font-family="Helvetica,sans-Serif" font-size="11.00">COMPÉTENCE</text>
<polyline fill="none" stroke="#1e3a8a" stroke-width="1.4" points="1582.21,-340.5 1582.21,-376.5 "/>
<text text-anchor="start" x="1590.21" y="-361.7" font-family="Helvetica,sans-Serif" font-size="11.00">id</text>
<text text-anchor="start" x="1590.21" y="-349.7" font-family="Helvetica,sans-Serif" font-size="11.00">nom (U)</text>
</g>
<!-- CONSENTEMENT -->
<g id="node7" class="node">
<title>CONSENTEMENT</title>
<polygon fill="#dbeafe" stroke="#1e3a8a" stroke-width="1.4" points="484.59,-117.5 484.59,-197.5 757.59,-197.5 757.59,-117.5 484.59,-117.5"/>
<text text-anchor="middle" x="562.59" y="-154.7" font-family="Helvetica,sans-Serif" font-size="11.00">CONSENTEMENT_COOKIE</text>
<polyline fill="none" stroke="#1e3a8a" stroke-width="1.4" points="640.59,-117.5 640.59,-197.5 "/>
<text text-anchor="start" x="648.59" y="-184.7" font-family="Helvetica,sans-Serif" font-size="11.00">id</text>
<text text-anchor="start" x="648.59" y="-172.7" font-family="Helvetica,sans-Serif" font-size="11.00">consent_token (U)</text>
<text text-anchor="start" x="648.59" y="-160.7" font-family="Helvetica,sans-Serif" font-size="11.00">essential</text>
<text text-anchor="start" x="648.59" y="-148.7" font-family="Helvetica,sans-Serif" font-size="11.00">analytics</text>
<text text-anchor="start" x="648.59" y="-136.7" font-family="Helvetica,sans-Serif" font-size="11.00">marketing</text>
<text text-anchor="start" x="648.59" y="-124.7" font-family="Helvetica,sans-Serif" font-size="11.00">consented_at</text>
</g>
<!-- DEMANDE -->
<g id="node8" class="node">
<title>DEMANDE</title>
<polygon fill="#dbeafe" stroke="#1e3a8a" stroke-width="1.4" points="520.09,-0.5 520.09,-80.5 722.09,-80.5 722.09,-0.5 520.09,-0.5"/>
<text text-anchor="middle" x="576.59" y="-37.7" font-family="Helvetica,sans-Serif" font-size="11.00">DEMANDE_RÉINIT</text>
<polyline fill="none" stroke="#1e3a8a" stroke-width="1.4" points="633.09,-0.5 633.09,-80.5 "/>
<text text-anchor="start" x="641.09" y="-67.7" font-family="Helvetica,sans-Serif" font-size="11.00">id</text>
<text text-anchor="start" x="641.09" y="-55.7" font-family="Helvetica,sans-Serif" font-size="11.00">email</text>
<text text-anchor="start" x="641.09" y="-43.7" font-family="Helvetica,sans-Serif" font-size="11.00">status</text>
<text text-anchor="start" x="641.09" y="-31.7" font-family="Helvetica,sans-Serif" font-size="11.00">created_at</text>
<text text-anchor="start" x="641.09" y="-19.7" font-family="Helvetica,sans-Serif" font-size="11.00">expires_at</text>
<text text-anchor="start" x="641.09" y="-7.7" font-family="Helvetica,sans-Serif" font-size="11.00">processed_at</text>
</g>
<!-- A_EST&#45;&#45;ETUDIANT -->
<g id="edge2" class="edge">
<title>A_EST&#45;&#45;ETUDIANT</title>
<path fill="none" stroke="#444444" d="M386.23,-391.92C429.55,-394.07 493.48,-397.23 543.55,-399.71"/>
</g>
<!-- A_APPARTENIR&#45;&#45;PROMOTION -->
<g id="edge4" class="edge">
<title>A_APPARTENIR&#45;&#45;PROMOTION</title>
<path fill="none" stroke="#444444" d="M952.08,-523.7C981.31,-529.18 1020.84,-536.58 1056.77,-543.31"/>
<text text-anchor="middle" x="1044.27" y="-535.31" font-family="Helvetica,sans-Serif" font-size="10.00">(0,N)</text>
</g>
<!-- A_GERER&#45;&#45;PROMOTION -->
<g id="edge6" class="edge">
<title>A_GERER&#45;&#45;PROMOTION</title>
<path fill="none" stroke="#444444" d="M680.44,-549.83C771.59,-551.91 948.52,-555.94 1056.83,-558.41"/>
<text text-anchor="middle" x="1044.33" y="-550.41" font-family="Helvetica,sans-Serif" font-size="10.00">(0,N)</text>
</g>
<!-- A_PROPOSER&#45;&#45;OFFRE -->
<g id="edge8" class="edge">
<title>A_PROPOSER&#45;&#45;OFFRE</title>
<path fill="none" stroke="#444444" d="M936.8,-203.5C969.55,-219.59 1024.66,-246.66 1070.45,-269.15"/>
<text text-anchor="middle" x="1058.95" y="-261.15" font-family="Helvetica,sans-Serif" font-size="10.00">(0,1)</text>
</g>
<!-- A_REQUERIR&#45;&#45;COMPETENCE -->
<g id="edge10" class="edge">
<title>A_REQUERIR&#45;&#45;COMPETENCE</title>
<path fill="none" stroke="#444444" d="M1406.45,-329.61C1430.25,-333.92 1461.4,-339.55 1489.87,-344.7"/>
<text text-anchor="middle" x="1477.37" y="-336.7" font-family="Helvetica,sans-Serif" font-size="10.00">(0,N)</text>
</g>
<!-- A_MAITRISER&#45;&#45;COMPETENCE -->
<g id="edge12" class="edge">
<title>A_MAITRISER&#45;&#45;COMPETENCE</title>
<path fill="none" stroke="#444444" d="M1406.45,-393C1430.25,-387.86 1461.4,-381.14 1489.87,-374.99"/>
<text text-anchor="middle" x="1477.37" y="-366.99" font-family="Helvetica,sans-Serif" font-size="10.00">(0,N)</text>
</g>
<!-- A_POSTULER&#45;&#45;OFFRE -->
<g id="edge14" class="edge">
<title>A_POSTULER&#45;&#45;OFFRE</title>
<path fill="none" stroke="#444444" d="M974.9,-283.65C1004.47,-287.71 1039.49,-292.52 1070.3,-296.75"/>
<text text-anchor="middle" x="1057.8" y="-288.75" font-family="Helvetica,sans-Serif" font-size="10.00">(0,N)</text>
</g>
<!-- A_SOUHAITER&#45;&#45;OFFRE -->
<g id="edge16" class="edge">
<title>A_SOUHAITER&#45;&#45;OFFRE</title>
<path fill="none" stroke="#444444" d="M958.08,-352.69C990.51,-344.99 1033.5,-334.79 1070.43,-326.03"/>
<text text-anchor="middle" x="1057.93" y="-318.03" font-family="Helvetica,sans-Serif" font-size="10.00">(0,N)</text>
</g>
<!-- A_COMMENTER&#45;&#45;ENTREPRISE -->
<g id="edge18" class="edge">
<title>A_COMMENTER&#45;&#45;ENTREPRISE</title>
<path fill="none" stroke="#444444" d="M405.75,-286.5C444.66,-286.5 493.71,-286.5 535.06,-286.5"/>
<text text-anchor="middle" x="522.56" y="-278.5" font-family="Helvetica,sans-Serif" font-size="10.00">(0,N)</text>
</g>
<!-- A_CONSENTIR&#45;&#45;CONSENTEMENT -->
<g id="edge20" class="edge">
<title>A_CONSENTIR&#45;&#45;CONSENTEMENT</title>
<path fill="none" stroke="#444444" d="M383.68,-175.89C411.41,-173.73 448.23,-170.87 484.53,-168.05"/>
<text text-anchor="middle" x="473.03" y="-160.05" font-family="Helvetica,sans-Serif" font-size="10.00">(0,1)</text>
</g>
<!-- A_DEMANDER&#45;&#45;DEMANDE -->
<g id="edge22" class="edge">
<title>A_DEMANDER&#45;&#45;DEMANDE</title>
<path fill="none" stroke="#444444" d="M380.86,-78.57C417.82,-72.69 472.25,-64.03 519.86,-56.45"/>
<text text-anchor="middle" x="508.36" y="-48.45" font-family="Helvetica,sans-Serif" font-size="10.00">(0,1)</text>
</g>
</g>
</svg>
