<?xml version="1.0" encoding="UTF-8" standalone="no"?>
<!DOCTYPE svg PUBLIC "-//W3C//DTD SVG 1.1//EN"
 "http://www.w3.org/Graphics/SVG/1.1/DTD/svg11.dtd">
<!-- Generated by graphviz version 2.43.0 (0)
 -->
<!-- Title: MVC Pages: 1 -->
<svg width="1249pt" height="196pt"
 viewBox="0.00 0.00 1249.21 195.50" xmlns="http://www.w3.org/2000/svg" xmlns:xlink="http://www.w3.org/1999/xlink">
<g id="graph0" class="graph" transform="scale(1 1) rotate(0) translate(4 191.5)">
<title>MVC</title>
<polygon fill="white" stroke="transparent" points="-4,4 -4,-191.5 1245.21,-191.5 1245.21,4 -4,4"/>
<text text-anchor="middle" x="620.6" y="-165.9" font-family="Helvetica,sans-Serif" font-size="22.00">Architecture MVC — Help Me Stage</text>
<!-- NAV -->
<g id="node1" class="node">
<title>NAV</title>
<ellipse fill="#e5e7eb" stroke="#374151" stroke-width="1.4" cx="60.1" cy="-86.5" rx="60.21" ry="24.08"/>
<text text-anchor="middle" x="60.1" y="-89.9" font-family="Helvetica,sans-Serif" font-size="12.00">Navigateur</text>
<text text-anchor="middle" x="60.1" y="-76.9" font-family="Helvetica,sans-Serif" font-size="12.00">(utilisateur)</text>
</g>
<!-- ROUTER -->
<g id="node2" class="node">
<title>ROUTER</title>
<polygon fill="#fde68a" stroke="#92400e" stroke-width="1.4" points="440.21,-104.5 271.21,-104.5 271.21,-68.5 440.21,-68.5 440.21,-104.5"/>
<text text-anchor="middle" x="355.71" y="-89.9" font-family="Helvetica,sans-Serif" font-size="12.00">index.php</text>
<text text-anchor="middle" x="355.71" y="-76.9" font-family="Helvetica,sans-Serif" font-size="12.00">Routeur (Front Controller)</text>
</g>
<!-- NAV&#45;&gt;ROUTER -->
<g id="edge1" class="edge">
<title>NAV&#45;&gt;ROUTER</title>
<path fill="none" stroke="#374151" d="M120.52,-86.5C160.87,-86.5 215.08,-86.5 261.18,-86.5"/>
<polygon fill="#374151" stroke="#374151" points="261.18,-90 271.18,-86.5 261.18,-83 261.18,-90"/>
<text text-anchor="middle" x="195.71" y="-100.5" font-family="Helvetica,sans-Serif" font-size="10.00">1. requête HTTP</text>
<text text-anchor="middle" x="195.71" y="-89.5" font-family="Helvetica,sans-Serif" font-size="10.00">(URL)</text>
</g>
<!-- CTRL -->
<g id="node3" class="node">
<title>CTRL</title>
<polygon fill="#bfdbfe" stroke="#1e3a8a" stroke-width="1.4" points="718.21,-116.5 595.21,-116.5 595.21,-56.5 718.21,-56.5 718.21,-116.5"/>
<text text-anchor="middle" x="656.71" y="-102.9" font-family="Helvetica,sans-Serif" font-size="12.00">CONTROLLER</text>
<text text-anchor="middle" x="656.71" y="-89.9" font-family="Helvetica,sans-Serif" font-size="12.00">src/Controller/</text>
<text text-anchor="middle" x="656.71" y="-76.9" font-family="Helvetica,sans-Serif" font-size="12.00">(reçoit la requête,</text>
<text text-anchor="middle" x="656.71" y="-63.9" font-family="Helvetica,sans-Serif" font-size="12.00">orchestre, valide)</text>
</g>
<!-- ROUTER&#45;&gt;CTRL -->
<g id="edge2" class="edge">
<title>ROUTER&#45;&gt;CTRL</title>
<path fill="none" stroke="#374151" d="M440.39,-86.5C485.82,-86.5 541.37,-86.5 584.67,-86.5"/>
<polygon fill="#374151" stroke="#374151" points="584.83,-90 594.83,-86.5 584.83,-83 584.83,-90"/>
<text text-anchor="middle" x="517.71" y="-100.5" font-family="Helvetica,sans-Serif" font-size="10.00">2. route vers</text>
<text text-anchor="middle" x="517.71" y="-89.5" font-family="Helvetica,sans-Serif" font-size="10.00">le bon contrôleur</text>
</g>
<!-- MODEL -->
<g id="node4" class="node">
<title>MODEL</title>
<polygon fill="#bbf7d0" stroke="#166534" stroke-width="1.4" points="978.21,-155.5 849.21,-155.5 849.21,-95.5 978.21,-95.5 978.21,-155.5"/>
<text text-anchor="middle" x="913.71" y="-141.9" font-family="Helvetica,sans-Serif" font-size="12.00">MODEL</text>
<text text-anchor="middle" x="913.71" y="-128.9" font-family="Helvetica,sans-Serif" font-size="12.00">src/Repository/</text>
<text text-anchor="middle" x="913.71" y="-115.9" font-family="Helvetica,sans-Serif" font-size="12.00">(logique d&#39;accès</text>
<text text-anchor="middle" x="913.71" y="-102.9" font-family="Helvetica,sans-Serif" font-size="12.00">aux données, SQL)</text>
</g>
<!-- CTRL&#45;&gt;MODEL -->
<g id="edge3" class="edge">
<title>CTRL&#45;&gt;MODEL</title>
<path fill="none" stroke="#374151" d="M718.46,-95.79C754.57,-101.31 800.62,-108.36 838.82,-114.2"/>
<polygon fill="#374151" stroke="#374151" points="838.45,-117.68 848.86,-115.74 839.5,-110.76 838.45,-117.68"/>
<text text-anchor="middle" x="783.71" y="-122.5" font-family="Helvetica,sans-Serif" font-size="10.00">3. demande</text>
<text text-anchor="middle" x="783.71" y="-111.5" font-family="Helvetica,sans-Serif" font-size="10.00">les données</text>
</g>
<!-- VIEW -->
<g id="node6" class="node">
<title>VIEW</title>
<polygon fill="#fecaca" stroke="#991b1b" stroke-width="1.4" points="973.21,-47 854.21,-47 854.21,0 973.21,0 973.21,-47"/>
<text text-anchor="middle" x="913.71" y="-33.4" font-family="Helvetica,sans-Serif" font-size="12.00">VIEW</text>
<text text-anchor="middle" x="913.71" y="-20.4" font-family="Helvetica,sans-Serif" font-size="12.00">templates/*.twig</text>
<text text-anchor="middle" x="913.71" y="-7.4" font-family="Helvetica,sans-Serif" font-size="12.00">(génère le HTML)</text>
</g>
<!-- CTRL&#45;&gt;VIEW -->
<g id="edge7" class="edge">
<title>CTRL&#45;&gt;VIEW</title>
<path fill="none" stroke="#374151" d="M718.34,-61.1C730.1,-56.79 742.43,-52.69 754.21,-49.5 783.21,-41.65 815.89,-35.8 844,-31.66"/>
<polygon fill="#374151" stroke="#374151" points="844.73,-35.09 854.13,-30.21 843.74,-28.16 844.73,-35.09"/>
<text text-anchor="middle" x="783.71" y="-63.5" font-family="Helvetica,sans-Serif" font-size="10.00">7. transmet</text>
<text text-anchor="middle" x="783.71" y="-52.5" font-family="Helvetica,sans-Serif" font-size="10.00">les données</text>
</g>
<!-- MODEL&#45;&gt;CTRL -->
<g id="edge6" class="edge">
<title>MODEL&#45;&gt;CTRL</title>
<path fill="none" stroke="#374151" stroke-dasharray="5,2" d="M849.04,-95.77C837.35,-91.51 825.09,-87.8 813.21,-85.5 785.83,-80.2 755.22,-79.34 728.46,-80.2"/>
<polygon fill="#374151" stroke="#374151" points="728.25,-76.71 718.4,-80.61 728.53,-83.7 728.25,-76.71"/>
<text text-anchor="middle" x="783.71" y="-88.5" font-family="Helvetica,sans-Serif" font-size="10.00">6. données</text>
</g>
<!-- DB -->
<g id="node5" class="node">
<title>DB</title>
<path fill="#d1fae5" stroke="#166534" stroke-width="1.4" d="M1241.21,-144.52C1241.21,-146.86 1214.54,-148.75 1181.71,-148.75 1148.88,-148.75 1122.21,-146.86 1122.21,-144.52 1122.21,-144.52 1122.21,-106.48 1122.21,-106.48 1122.21,-104.14 1148.88,-102.25 1181.71,-102.25 1214.54,-102.25 1241.21,-104.14 1241.21,-106.48 1241.21,-106.48 1241.21,-144.52 1241.21,-144.52"/>
<path fill="none" stroke="#166534" stroke-width="1.4" d="M1241.21,-144.52C1241.21,-142.19 1214.54,-140.3 1181.71,-140.3 1148.88,-140.3 1122.21,-142.19 1122.21,-144.52"/>
<text text-anchor="middle" x="1181.71" y="-128.9" font-family="Helvetica,sans-Serif" font-size="12.00">Base de données</text>
<text text-anchor="middle" x="1181.71" y="-115.9" font-family="Helvetica,sans-Serif" font-size="12.00">MySQL (Railway)</text>
</g>
<!-- MODEL&#45;&gt;DB -->
<g id="edge4" class="edge">
<title>MODEL&#45;&gt;DB</title>
<path fill="none" stroke="#374151" d="M978.42,-125.5C1018.66,-125.5 1070.64,-125.5 1111.83,-125.5"/>
<polygon fill="#374151" stroke="#374151" points="1112.06,-129 1122.06,-125.5 1112.06,-122 1112.06,-129"/>
<text text-anchor="middle" x="1050.21" y="-139.5" font-family="Helvetica,sans-Serif" font-size="10.00">4. requête SQL</text>
<text text-anchor="middle" x="1050.21" y="-128.5" font-family="Helvetica,sans-Serif" font-size="10.00">(PDO)</text>
</g>
<!-- DB&#45;&gt;MODEL -->
<g id="edge5" class="edge">
<title>DB&#45;&gt;MODEL</title>
<path fill="none" stroke="#374151" stroke-dasharray="5,2" d="M1122.03,-111.1C1110.24,-108.77 1097.88,-106.72 1086.21,-105.5 1054.38,-102.17 1046.05,-102.33 1014.21,-105.5 1005.83,-106.33 997.11,-107.55 988.47,-108.99"/>
<polygon fill="#374151" stroke="#374151" points="987.63,-105.58 978.39,-110.75 988.84,-112.47 987.63,-105.58"/>
<text text-anchor="middle" x="1050.21" y="-108.5" font-family="Helvetica,sans-Serif" font-size="10.00">5. résultats</text>
</g>
<!-- VIEW&#45;&gt;NAV -->
<g id="edge8" class="edge">
<title>VIEW&#45;&gt;NAV</title>
<path fill="none" stroke="#374151" stroke-dasharray="5,2" d="M854.14,-23.4C741.1,-23.78 485.1,-27.39 271.21,-50.5 221.41,-55.88 165.54,-65.63 123.94,-73.63"/>
<polygon fill="#374151" stroke="#374151" points="123.1,-70.23 113.95,-75.57 124.44,-77.1 123.1,-70.23"/>
<text text-anchor="middle" x="517.71" y="-48.5" font-family="Helvetica,sans-Serif" font-size="10.00">8. page HTML</text>
<text text-anchor="middle" x="517.71" y="-37.5" font-family="Helvetica,sans-Serif" font-size="10.00">(réponse)</text>
</g>
</g>
</svg>
