<?xml version="1.0" encoding="UTF-8" standalone="no"?>
<!DOCTYPE svg PUBLIC "-//W3C//DTD SVG 1.1//EN"
 "http://www.w3.org/Graphics/SVG/1.1/DTD/svg11.dtd">
<!-- Generated by graphviz version 2.43.0 (0)
 -->
<!-- Title: MLD Pages: 1 -->
<svg width="608pt" height="1624pt"
 viewBox="0.00 0.00 608.00 1624.00" xmlns="http://www.w3.org/2000/svg" xmlns:xlink="http://www.w3.org/1999/xlink">
<g id="graph0" class="graph" transform="scale(1 1) rotate(0) translate(4 1620)">
<title>MLD</title>
<polygon fill="white" stroke="transparent" points="-4,4 -4,-1620 604,-1620 604,4 -4,4"/>
<text text-anchor="middle" x="300" y="-1592.8" font-family="Helvetica,sans-Serif" font-size="24.00">MLD — Help Me Stage</text>
<!-- users -->
<g id="node1" class="node">
<title>users</title>
<polygon fill="white" stroke="transparent" points="294.5,-604 294.5,-780 389.5,-780 389.5,-604 294.5,-604"/>
<polygon fill="#1e3a8a" stroke="transparent" points="295,-758 295,-780 390,-780 390,-758 295,-758"/>
<polygon fill="none" stroke="black" points="295,-758 295,-780 390,-780 390,-758 295,-758"/>
<text text-anchor="start" x="325.5" y="-767.2" font-family="Helvetica,sans-Serif" font-weight="bold" font-size="11.00" fill="white">users</text>
<polygon fill="none" stroke="black" points="295,-736 295,-758 390,-758 390,-736 295,-736"/>
<text text-anchor="start" x="300" y="-745.2" font-family="Helvetica,sans-Serif" font-weight="bold" font-size="11.00">PK id</text>
<polygon fill="none" stroke="black" points="295,-714 295,-736 390,-736 390,-714 295,-714"/>
<text text-anchor="start" x="300" y="-722.2" font-family="Helvetica,sans-Serif" font-size="11.00">nom</text>
<polygon fill="none" stroke="black" points="295,-692 295,-714 390,-714 390,-692 295,-692"/>
<text text-anchor="start" x="300" y="-700.2" font-family="Helvetica,sans-Serif" font-size="11.00">prenom</text>
<polygon fill="none" stroke="black" points="295,-670 295,-692 390,-692 390,-670 295,-670"/>
<text text-anchor="start" x="300" y="-678.2" font-family="Helvetica,sans-Serif" font-size="11.00">email (U)</text>
<polygon fill="none" stroke="black" points="295,-648 295,-670 390,-670 390,-648 295,-648"/>
<text text-anchor="start" x="300" y="-656.2" font-family="Helvetica,sans-Serif" font-size="11.00">password_hash</text>
<polygon fill="none" stroke="black" points="295,-626 295,-648 390,-648 390,-626 295,-626"/>
<text text-anchor="start" x="300" y="-634.2" font-family="Helvetica,sans-Serif" font-size="11.00">role</text>
<polygon fill="none" stroke="black" points="295,-604 295,-626 390,-626 390,-604 295,-604"/>
<text text-anchor="start" x="300" y="-612.2" font-family="Helvetica,sans-Serif" font-size="11.00">created_at</text>
</g>
<!-- student_profiles -->
<g id="node2" class="node">
<title>student_profiles</title>
<polygon fill="white" stroke="transparent" points="36.5,-1197 36.5,-1351 146.5,-1351 146.5,-1197 36.5,-1197"/>
<polygon fill="#1e3a8a" stroke="transparent" points="36.5,-1329 36.5,-1351 146.5,-1351 146.5,-1329 36.5,-1329"/>
<polygon fill="none" stroke="black" points="36.5,-1329 36.5,-1351 146.5,-1351 146.5,-1329 36.5,-1329"/>
<text text-anchor="start" x="41.5" y="-1338.2" font-family="Helvetica,sans-Serif" font-weight="bold" font-size="11.00" fill="white">student_profiles</text>
<polygon fill="none" stroke="black" points="36.5,-1307 36.5,-1329 146.5,-1329 146.5,-1307 36.5,-1307"/>
<text text-anchor="start" x="41.5" y="-1316.2" font-family="Helvetica,sans-Serif" font-weight="bold" font-size="11.00">PK id</text>
<polygon fill="none" stroke="black" points="36.5,-1285 36.5,-1307 146.5,-1307 146.5,-1285 36.5,-1285"/>
<text text-anchor="start" x="41.5" y="-1293.2" font-family="Helvetica,sans-Serif" font-size="11.00"># user_id (U)</text>
<polygon fill="none" stroke="black" points="36.5,-1263 36.5,-1285 146.5,-1285 146.5,-1263 36.5,-1263"/>
<text text-anchor="start" x="41.5" y="-1271.2" font-family="Helvetica,sans-Serif" font-size="11.00">formation</text>
<polygon fill="none" stroke="black" points="36.5,-1241 36.5,-1263 146.5,-1263 146.5,-1241 36.5,-1241"/>
<text text-anchor="start" x="41.5" y="-1249.2" font-family="Helvetica,sans-Serif" font-size="11.00"># promotion_id</text>
<polygon fill="none" stroke="black" points="36.5,-1219 36.5,-1241 146.5,-1241 146.5,-1219 36.5,-1219"/>
<text text-anchor="start" x="41.5" y="-1227.2" font-family="Helvetica,sans-Serif" font-size="11.00">status</text>
<polygon fill="none" stroke="black" points="36.5,-1197 36.5,-1219 146.5,-1219 146.5,-1197 36.5,-1197"/>
<text text-anchor="start" x="41.5" y="-1205.2" font-family="Helvetica,sans-Serif" font-size="11.00">last_activity</text>
</g>
<!-- student_profiles&#45;&gt;users -->
<g id="edge1" class="edge">
<title>student_profiles:user_id&#45;&gt;users:id</title>
<path fill="none" stroke="#b45309" stroke-width="1.3" d="M91.6,-1274C95.92,-1274 234,-1274 234,-1274 234,-1274 234,-747.2 234,-747.2 234,-747.2 286.87,-747.2 286.87,-747.2"/>
<polygon fill="#b45309" stroke="#b45309" stroke-width="1.3" points="286.87,-750 294.87,-747.2 286.87,-744.4 286.87,-750"/>
</g>
<!-- promotions -->
<g id="node3" class="node">
<title>promotions</title>
<polygon fill="white" stroke="transparent" points="295.5,-1025 295.5,-1157 388.5,-1157 388.5,-1025 295.5,-1025"/>
<polygon fill="#1e3a8a" stroke="transparent" points="296,-1135 296,-1157 389,-1157 389,-1135 296,-1135"/>
<polygon fill="none" stroke="black" points="296,-1135 296,-1157 389,-1157 389,-1135 296,-1135"/>
<text text-anchor="start" x="307.5" y="-1144.2" font-family="Helvetica,sans-Serif" font-weight="bold" font-size="11.00" fill="white">promotions</text>
<polygon fill="none" stroke="black" points="296,-1113 296,-1135 389,-1135 389,-1113 296,-1113"/>
<text text-anchor="start" x="301" y="-1122.2" font-family="Helvetica,sans-Serif" font-weight="bold" font-size="11.00">PK id</text>
<polygon fill="none" stroke="black" points="296,-1091 296,-1113 389,-1113 389,-1091 296,-1091"/>
<text text-anchor="start" x="301" y="-1099.2" font-family="Helvetica,sans-Serif" font-size="11.00">label (U)</text>
<polygon fill="none" stroke="black" points="296,-1069 296,-1091 389,-1091 389,-1069 296,-1069"/>
<text text-anchor="start" x="301" y="-1077.2" font-family="Helvetica,sans-Serif" font-size="11.00">academic_year</text>
<polygon fill="none" stroke="black" points="296,-1047 296,-1069 389,-1069 389,-1047 296,-1047"/>
<text text-anchor="start" x="301" y="-1055.2" font-family="Helvetica,sans-Serif" font-size="11.00">is_active</text>
<polygon fill="none" stroke="black" points="296,-1025 296,-1047 389,-1047 389,-1025 296,-1025"/>
<text text-anchor="start" x="301" y="-1033.2" font-family="Helvetica,sans-Serif" font-size="11.00">created_at</text>
</g>
<!-- student_profiles&#45;&gt;promotions -->
<g id="edge2" class="edge">
<title>student_profiles:promotion_id&#45;&gt;promotions:id</title>
<path fill="none" stroke="#b45309" stroke-width="1.3" d="M92,-1240.93C92,-1215.58 92,-1155.5 92,-1155.5 92,-1155.5 334.95,-1155.5 334.95,-1155.5"/>
<polygon fill="#b45309" stroke="#b45309" stroke-width="1.3" points="334.95,-1158.3 342.95,-1155.5 334.95,-1152.7 334.95,-1158.3"/>
</g>
<!-- pilot_promotions -->
<g id="node4" class="node">
<title>pilot_promotions</title>
<polygon fill="white" stroke="transparent" points="30,-1058 30,-1146 153,-1146 153,-1058 30,-1058"/>
<polygon fill="#b45309" stroke="transparent" points="30.5,-1124 30.5,-1146 153.5,-1146 153.5,-1124 30.5,-1124"/>
<polygon fill="none" stroke="black" points="30.5,-1124 30.5,-1146 153.5,-1146 153.5,-1124 30.5,-1124"/>
<text text-anchor="start" x="40.5" y="-1133.2" font-family="Helvetica,sans-Serif" font-weight="bold" font-size="11.00" fill="white">pilot_promotions</text>
<polygon fill="none" stroke="black" points="30.5,-1102 30.5,-1124 153.5,-1124 153.5,-1102 30.5,-1102"/>
<text text-anchor="start" x="35.5" y="-1111.2" font-family="Helvetica,sans-Serif" font-weight="bold" font-size="11.00">PK # pilot_user_id</text>
<polygon fill="none" stroke="black" points="30.5,-1080 30.5,-1102 153.5,-1102 153.5,-1080 30.5,-1080"/>
<text text-anchor="start" x="35.5" y="-1089.2" font-family="Helvetica,sans-Serif" font-weight="bold" font-size="11.00">PK # promotion_id</text>
<polygon fill="none" stroke="black" points="30.5,-1058 30.5,-1080 153.5,-1080 153.5,-1058 30.5,-1058"/>
<text text-anchor="start" x="35.5" y="-1066.2" font-family="Helvetica,sans-Serif" font-size="11.00">created_at</text>
</g>
<!-- pilot_promotions&#45;&gt;users -->
<g id="edge3" class="edge">
<title>pilot_promotions:pilot_user_id&#45;&gt;users:id</title>
<path fill="none" stroke="#b45309" stroke-width="1.3" d="M92,-1101.87C92,-1076.39 92,-1016 92,-1016 92,-1016 342,-1016 342,-1016 342,-1016 342,-766.22 342,-766.22"/>
<polygon fill="#b45309" stroke="#b45309" stroke-width="1.3" points="344.8,-766.22 342,-758.22 339.2,-766.22 344.8,-766.22"/>
</g>
<!-- pilot_promotions&#45;&gt;promotions -->
<g id="edge4" class="edge">
<title>pilot_promotions:promotion_id&#45;&gt;promotions:id</title>
<path fill="none" stroke="#b45309" stroke-width="1.3" d="M153.78,-1102C153.78,-1102 334.92,-1102 334.92,-1102"/>
<polygon fill="#b45309" stroke="#b45309" stroke-width="1.3" points="334.92,-1104.8 342.92,-1102 334.92,-1099.2 334.92,-1104.8"/>
</g>
<!-- entreprises -->
<g id="node5" class="node">
<title>entreprises</title>
<polygon fill="white" stroke="transparent" points="509,-419 509,-661 592,-661 592,-419 509,-419"/>
<polygon fill="#1e3a8a" stroke="transparent" points="509.5,-639 509.5,-661 592.5,-661 592.5,-639 509.5,-639"/>
<polygon fill="none" stroke="black" points="509.5,-639 509.5,-661 592.5,-661 592.5,-639 509.5,-639"/>
<text text-anchor="start" x="515.5" y="-648.2" font-family="Helvetica,sans-Serif" font-weight="bold" font-size="11.00" fill="white">entreprises</text>
<polygon fill="none" stroke="black" points="509.5,-617 509.5,-639 592.5,-639 592.5,-617 509.5,-617"/>
<text text-anchor="start" x="514.5" y="-626.2" font-family="Helvetica,sans-Serif" font-weight="bold" font-size="11.00">PK id</text>
<polygon fill="none" stroke="black" points="509.5,-595 509.5,-617 592.5,-617 592.5,-595 509.5,-595"/>
<text text-anchor="start" x="514.5" y="-603.2" font-family="Helvetica,sans-Serif" font-size="11.00">nom (U)</text>
<polygon fill="none" stroke="black" points="509.5,-573 509.5,-595 592.5,-595 592.5,-573 509.5,-573"/>
<text text-anchor="start" x="514.5" y="-581.2" font-family="Helvetica,sans-Serif" font-size="11.00">siret</text>
<polygon fill="none" stroke="black" points="509.5,-551 509.5,-573 592.5,-573 592.5,-551 509.5,-551"/>
<text text-anchor="start" x="514.5" y="-559.2" font-family="Helvetica,sans-Serif" font-size="11.00">secteur</text>
<polygon fill="none" stroke="black" points="509.5,-529 509.5,-551 592.5,-551 592.5,-529 509.5,-529"/>
<text text-anchor="start" x="514.5" y="-537.2" font-family="Helvetica,sans-Serif" font-size="11.00">ville</text>
<polygon fill="none" stroke="black" points="509.5,-507 509.5,-529 592.5,-529 592.5,-507 509.5,-507"/>
<text text-anchor="start" x="514.5" y="-515.2" font-family="Helvetica,sans-Serif" font-size="11.00">site_web</text>
<polygon fill="none" stroke="black" points="509.5,-485 509.5,-507 592.5,-507 592.5,-485 509.5,-485"/>
<text text-anchor="start" x="514.5" y="-493.2" font-family="Helvetica,sans-Serif" font-size="11.00">note</text>
<polygon fill="none" stroke="black" points="509.5,-463 509.5,-485 592.5,-485 592.5,-463 509.5,-463"/>
<text text-anchor="start" x="514.5" y="-471.2" font-family="Helvetica,sans-Serif" font-size="11.00">commentaire</text>
<polygon fill="none" stroke="black" points="509.5,-441 509.5,-463 592.5,-463 592.5,-441 509.5,-441"/>
<text text-anchor="start" x="514.5" y="-449.2" font-family="Helvetica,sans-Serif" font-size="11.00">created_at</text>
<polygon fill="none" stroke="black" points="509.5,-419 509.5,-441 592.5,-441 592.5,-419 509.5,-419"/>
<text text-anchor="start" x="514.5" y="-427.2" font-family="Helvetica,sans-Serif" font-size="11.00">updated_at</text>
</g>
<!-- offres -->
<g id="node6" class="node">
<title>offres</title>
<polygon fill="white" stroke="transparent" points="292,-195 292,-415 392,-415 392,-195 292,-195"/>
<polygon fill="#1e3a8a" stroke="transparent" points="292,-393 292,-415 392,-415 392,-393 292,-393"/>
<polygon fill="none" stroke="black" points="292,-393 292,-415 392,-415 392,-393 292,-393"/>
<text text-anchor="start" x="323.5" y="-402.2" font-family="Helvetica,sans-Serif" font-weight="bold" font-size="11.00" fill="white">offres</text>
<polygon fill="none" stroke="black" points="292,-371 292,-393 392,-393 392,-371 292,-371"/>
<text text-anchor="start" x="297" y="-380.2" font-family="Helvetica,sans-Serif" font-weight="bold" font-size="11.00">PK id</text>
<polygon fill="none" stroke="black" points="292,-349 292,-371 392,-371 392,-349 292,-349"/>
<text text-anchor="start" x="297" y="-357.2" font-family="Helvetica,sans-Serif" font-size="11.00">titre</text>
<polygon fill="none" stroke="black" points="292,-327 292,-349 392,-349 392,-327 292,-327"/>
<text text-anchor="start" x="297" y="-335.2" font-family="Helvetica,sans-Serif" font-size="11.00"># entreprise_id</text>
<polygon fill="none" stroke="black" points="292,-305 292,-327 392,-327 392,-305 292,-305"/>
<text text-anchor="start" x="297" y="-313.2" font-family="Helvetica,sans-Serif" font-size="11.00">entreprise</text>
<polygon fill="none" stroke="black" points="292,-283 292,-305 392,-305 392,-283 292,-283"/>
<text text-anchor="start" x="297" y="-291.2" font-family="Helvetica,sans-Serif" font-size="11.00">lieu</text>
<polygon fill="none" stroke="black" points="292,-261 292,-283 392,-283 392,-261 292,-261"/>
<text text-anchor="start" x="297" y="-269.2" font-family="Helvetica,sans-Serif" font-size="11.00">duree_semaines</text>
<polygon fill="none" stroke="black" points="292,-239 292,-261 392,-261 392,-239 292,-239"/>
<text text-anchor="start" x="297" y="-247.2" font-family="Helvetica,sans-Serif" font-size="11.00">remuneration</text>
<polygon fill="none" stroke="black" points="292,-217 292,-239 392,-239 392,-217 292,-217"/>
<text text-anchor="start" x="297" y="-225.2" font-family="Helvetica,sans-Serif" font-size="11.00">description</text>
<polygon fill="none" stroke="black" points="292,-195 292,-217 392,-217 392,-195 292,-195"/>
<text text-anchor="start" x="297" y="-203.2" font-family="Helvetica,sans-Serif" font-size="11.00">created_at</text>
</g>
<!-- offres&#45;&gt;entreprises -->
<g id="edge5" class="edge">
<title>offres:entreprise_id&#45;&gt;entreprises:id</title>
<path fill="none" stroke="#b45309" stroke-width="1.3" d="M331,-349.27C331,-374.44 331,-433 331,-433 331,-433 543.34,-433 543.34,-433"/>
<polygon fill="#b45309" stroke="#b45309" stroke-width="1.3" points="543.34,-435.8 551.34,-433 543.34,-430.2 543.34,-435.8"/>
</g>
<!-- competences -->
<g id="node7" class="node">
<title>competences</title>
<polygon fill="white" stroke="transparent" points="296,-53 296,-119 388,-119 388,-53 296,-53"/>
<polygon fill="#1e3a8a" stroke="transparent" points="296,-97 296,-119 388,-119 388,-97 296,-97"/>
<polygon fill="none" stroke="black" points="296,-97 296,-119 388,-119 388,-97 296,-97"/>
<text text-anchor="start" x="301" y="-106.2" font-family="Helvetica,sans-Serif" font-weight="bold" font-size="11.00" fill="white">competences</text>
<polygon fill="none" stroke="black" points="296,-75 296,-97 388,-97 388,-75 296,-75"/>
<text text-anchor="start" x="301" y="-84.2" font-family="Helvetica,sans-Serif" font-weight="bold" font-size="11.00">PK id</text>
<polygon fill="none" stroke="black" points="296,-53 296,-75 388,-75 388,-53 296,-53"/>
<text text-anchor="start" x="301" y="-61.2" font-family="Helvetica,sans-Serif" font-size="11.00">nom (U)</text>
</g>
<!-- offre_competence -->
<g id="node8" class="node">
<title>offre_competence</title>
<polygon fill="white" stroke="transparent" points="24,-4 24,-70 159,-70 159,-4 24,-4"/>
<polygon fill="#b45309" stroke="transparent" points="24.5,-48 24.5,-70 159.5,-70 159.5,-48 24.5,-48"/>
<polygon fill="none" stroke="black" points="24.5,-48 24.5,-70 159.5,-70 159.5,-48 24.5,-48"/>
<text text-anchor="start" x="37" y="-57.2" font-family="Helvetica,sans-Serif" font-weight="bold" font-size="11.00" fill="white">offre_competence</text>
<polygon fill="none" stroke="black" points="24.5,-26 24.5,-48 159.5,-48 159.5,-26 24.5,-26"/>
<text text-anchor="start" x="29.5" y="-35.2" font-family="Helvetica,sans-Serif" font-weight="bold" font-size="11.00">PK # offre_id</text>
<polygon fill="none" stroke="black" points="24.5,-4 24.5,-26 159.5,-26 159.5,-4 24.5,-4"/>
<text text-anchor="start" x="29.5" y="-13.2" font-family="Helvetica,sans-Serif" font-weight="bold" font-size="11.00">PK # competence_id</text>
</g>
<!-- offre_competence&#45;&gt;offres -->
<g id="edge6" class="edge">
<title>offre_competence:offre_id&#45;&gt;offres:id</title>
<path fill="none" stroke="#b45309" stroke-width="1.3" d="M92.56,-65.67C95.09,-65.67 176,-65.67 176,-65.67 176,-65.67 176,-212.5 176,-212.5 176,-212.5 333.88,-212.5 333.88,-212.5"/>
<polygon fill="#b45309" stroke="#b45309" stroke-width="1.3" points="333.88,-215.3 341.88,-212.5 333.88,-209.7 333.88,-215.3"/>
</g>
<!-- offre_competence&#45;&gt;competences -->
<g id="edge7" class="edge">
<title>offre_competence:competence_id&#45;&gt;competences:id</title>
<path fill="none" stroke="#b45309" stroke-width="1.3" d="M92.55,-57.33C92.55,-57.33 333.96,-57.33 333.96,-57.33"/>
<polygon fill="#b45309" stroke="#b45309" stroke-width="1.3" points="333.96,-60.13 341.96,-57.33 333.96,-54.53 333.96,-60.13"/>
</g>
<!-- student_competence -->
<g id="node9" class="node">
<title>student_competence</title>
<polygon fill="white" stroke="transparent" points="22.5,-121 22.5,-187 160.5,-187 160.5,-121 22.5,-121"/>
<polygon fill="#b45309" stroke="transparent" points="22.5,-165 22.5,-187 160.5,-187 160.5,-165 22.5,-165"/>
<polygon fill="none" stroke="black" points="22.5,-165 22.5,-187 160.5,-187 160.5,-165 22.5,-165"/>
<text text-anchor="start" x="27.5" y="-174.2" font-family="Helvetica,sans-Serif" font-weight="bold" font-size="11.00" fill="white">student_competence</text>
<polygon fill="none" stroke="black" points="22.5,-143 22.5,-165 160.5,-165 160.5,-143 22.5,-143"/>
<text text-anchor="start" x="27.5" y="-152.2" font-family="Helvetica,sans-Serif" font-weight="bold" font-size="11.00">PK # user_id</text>
<polygon fill="none" stroke="black" points="22.5,-121 22.5,-143 160.5,-143 160.5,-121 22.5,-121"/>
<text text-anchor="start" x="27.5" y="-130.2" font-family="Helvetica,sans-Serif" font-weight="bold" font-size="11.00">PK # competence_id</text>
</g>
<!-- student_competence&#45;&gt;users -->
<g id="edge8" class="edge">
<title>student_competence:user_id&#45;&gt;users:id</title>
<path fill="none" stroke="#b45309" stroke-width="1.3" d="M162,-154.09C162,-161.51 162,-636.8 162,-636.8 162,-636.8 334.87,-636.8 334.87,-636.8"/>
<polygon fill="#b45309" stroke="#b45309" stroke-width="1.3" points="334.87,-639.6 342.87,-636.8 334.87,-634 334.87,-639.6"/>
</g>
<!-- student_competence&#45;&gt;competences -->
<g id="edge9" class="edge">
<title>student_competence:competence_id&#45;&gt;competences:id</title>
<path fill="none" stroke="#b45309" stroke-width="1.3" d="M91.55,-157C95.4,-157 342,-157 342,-157 342,-157 342,-105.09 342,-105.09"/>
<polygon fill="#b45309" stroke="#b45309" stroke-width="1.3" points="344.8,-105.09 342,-97.09 339.2,-105.09 344.8,-105.09"/>
</g>
<!-- candidatures -->
<g id="node10" class="node">
<title>candidatures</title>
<polygon fill="white" stroke="transparent" points="36.5,-238 36.5,-414 146.5,-414 146.5,-238 36.5,-238"/>
<polygon fill="#b45309" stroke="transparent" points="36.5,-392 36.5,-414 146.5,-414 146.5,-392 36.5,-392"/>
<polygon fill="none" stroke="black" points="36.5,-392 36.5,-414 146.5,-414 146.5,-392 36.5,-392"/>
<text text-anchor="start" x="51" y="-401.2" font-family="Helvetica,sans-Serif" font-weight="bold" font-size="11.00" fill="white">candidatures</text>
<polygon fill="none" stroke="black" points="36.5,-370 36.5,-392 146.5,-392 146.5,-370 36.5,-370"/>
<text text-anchor="start" x="41.5" y="-379.2" font-family="Helvetica,sans-Serif" font-weight="bold" font-size="11.00">PK id</text>
<polygon fill="none" stroke="black" points="36.5,-348 36.5,-370 146.5,-370 146.5,-348 36.5,-348"/>
<text text-anchor="start" x="41.5" y="-356.2" font-family="Helvetica,sans-Serif" font-size="11.00"># student_user_id</text>
<polygon fill="none" stroke="black" points="36.5,-326 36.5,-348 146.5,-348 146.5,-326 36.5,-326"/>
<text text-anchor="start" x="41.5" y="-334.2" font-family="Helvetica,sans-Serif" font-size="11.00"># offre_id</text>
<polygon fill="none" stroke="black" points="36.5,-304 36.5,-326 146.5,-326 146.5,-304 36.5,-304"/>
<text text-anchor="start" x="41.5" y="-312.2" font-family="Helvetica,sans-Serif" font-size="11.00">status</text>
<polygon fill="none" stroke="black" points="36.5,-282 36.5,-304 146.5,-304 146.5,-282 36.5,-282"/>
<text text-anchor="start" x="41.5" y="-290.2" font-family="Helvetica,sans-Serif" font-size="11.00">lettre_motivation</text>
<polygon fill="none" stroke="black" points="36.5,-260 36.5,-282 146.5,-282 146.5,-260 36.5,-260"/>
<text text-anchor="start" x="41.5" y="-268.2" font-family="Helvetica,sans-Serif" font-size="11.00">cv_filename</text>
<polygon fill="none" stroke="black" points="36.5,-238 36.5,-260 146.5,-260 146.5,-238 36.5,-238"/>
<text text-anchor="start" x="41.5" y="-246.2" font-family="Helvetica,sans-Serif" font-size="11.00">created_at</text>
</g>
<!-- candidatures&#45;&gt;users -->
<g id="edge10" class="edge">
<title>candidatures:student_user_id&#45;&gt;users:id</title>
<path fill="none" stroke="#b45309" stroke-width="1.3" d="M92,-370.15C92,-393.82 92,-447 92,-447 92,-447 376,-447 376,-447 376,-447 376,-727.97 376,-727.97"/>
<polygon fill="#b45309" stroke="#b45309" stroke-width="1.3" points="373.2,-727.97 376,-735.97 378.8,-727.97 373.2,-727.97"/>
</g>
<!-- candidatures&#45;&gt;offres -->
<g id="edge11" class="edge">
<title>candidatures:offre_id&#45;&gt;offres:id</title>
<path fill="none" stroke="#b45309" stroke-width="1.3" d="M146.78,-326C146.78,-326 333.91,-326 333.91,-326"/>
<polygon fill="#b45309" stroke="#b45309" stroke-width="1.3" points="333.91,-328.8 341.91,-326 333.91,-323.2 333.91,-328.8"/>
</g>
<!-- student_wishlist -->
<g id="node11" class="node">
<title>student_wishlist</title>
<polygon fill="white" stroke="transparent" points="36,-465 36,-553 147,-553 147,-465 36,-465"/>
<polygon fill="#b45309" stroke="transparent" points="36.5,-531 36.5,-553 147.5,-553 147.5,-531 36.5,-531"/>
<polygon fill="none" stroke="black" points="36.5,-531 36.5,-553 147.5,-553 147.5,-531 36.5,-531"/>
<text text-anchor="start" x="41.5" y="-540.2" font-family="Helvetica,sans-Serif" font-weight="bold" font-size="11.00" fill="white">student_wishlist</text>
<polygon fill="none" stroke="black" points="36.5,-509 36.5,-531 147.5,-531 147.5,-509 36.5,-509"/>
<text text-anchor="start" x="41.5" y="-518.2" font-family="Helvetica,sans-Serif" font-weight="bold" font-size="11.00">PK # user_id</text>
<polygon fill="none" stroke="black" points="36.5,-487 36.5,-509 147.5,-509 147.5,-487 36.5,-487"/>
<text text-anchor="start" x="41.5" y="-496.2" font-family="Helvetica,sans-Serif" font-weight="bold" font-size="11.00">PK # offre_id</text>
<polygon fill="none" stroke="black" points="36.5,-465 36.5,-487 147.5,-487 147.5,-465 36.5,-465"/>
<text text-anchor="start" x="41.5" y="-473.2" font-family="Helvetica,sans-Serif" font-size="11.00">created_at</text>
</g>
<!-- student_wishlist&#45;&gt;users -->
<g id="edge12" class="edge">
<title>student_wishlist:user_id&#45;&gt;users:id</title>
<path fill="none" stroke="#b45309" stroke-width="1.3" d="M147.64,-525C224.36,-525 354,-525 354,-525 354,-525 354,-727.99 354,-727.99"/>
<polygon fill="#b45309" stroke="#b45309" stroke-width="1.3" points="351.2,-727.99 354,-735.99 356.8,-727.99 351.2,-727.99"/>
</g>
<!-- student_wishlist&#45;&gt;offres -->
<g id="edge13" class="edge">
<title>student_wishlist:offre_id&#45;&gt;offres:id</title>
<path fill="none" stroke="#b45309" stroke-width="1.3" d="M147.69,-493C211.84,-493 309,-493 309,-493 309,-493 309,-401.05 309,-401.05"/>
<polygon fill="#b45309" stroke="#b45309" stroke-width="1.3" points="311.8,-401.05 309,-393.05 306.2,-401.05 311.8,-401.05"/>
</g>
<!-- entreprise_commentaires -->
<g id="node12" class="node">
<title>entreprise_commentaires</title>
<polygon fill="white" stroke="transparent" points="8,-875 8,-1007 175,-1007 175,-875 8,-875"/>
<polygon fill="#b45309" stroke="transparent" points="8.5,-985 8.5,-1007 175.5,-1007 175.5,-985 8.5,-985"/>
<polygon fill="none" stroke="black" points="8.5,-985 8.5,-1007 175.5,-1007 175.5,-985 8.5,-985"/>
<text text-anchor="start" x="13.5" y="-994.2" font-family="Helvetica,sans-Serif" font-weight="bold" font-size="11.00" fill="white">entreprise_commentaires</text>
<polygon fill="none" stroke="black" points="8.5,-963 8.5,-985 175.5,-985 175.5,-963 8.5,-963"/>
<text text-anchor="start" x="13.5" y="-972.2" font-family="Helvetica,sans-Serif" font-weight="bold" font-size="11.00">PK id</text>
<polygon fill="none" stroke="black" points="8.5,-941 8.5,-963 175.5,-963 175.5,-941 8.5,-941"/>
<text text-anchor="start" x="13.5" y="-949.2" font-family="Helvetica,sans-Serif" font-size="11.00"># entreprise_id</text>
<polygon fill="none" stroke="black" points="8.5,-919 8.5,-941 175.5,-941 175.5,-919 8.5,-919"/>
<text text-anchor="start" x="13.5" y="-927.2" font-family="Helvetica,sans-Serif" font-size="11.00"># user_id</text>
<polygon fill="none" stroke="black" points="8.5,-897 8.5,-919 175.5,-919 175.5,-897 8.5,-897"/>
<text text-anchor="start" x="13.5" y="-905.2" font-family="Helvetica,sans-Serif" font-size="11.00">commentaire</text>
<polygon fill="none" stroke="black" points="8.5,-875 8.5,-897 175.5,-897 175.5,-875 8.5,-875"/>
<text text-anchor="start" x="13.5" y="-883.2" font-family="Helvetica,sans-Serif" font-size="11.00">created_at</text>
</g>
<!-- entreprise_commentaires&#45;&gt;users -->
<g id="edge15" class="edge">
<title>entreprise_commentaires:user_id&#45;&gt;users:id</title>
<path fill="none" stroke="#b45309" stroke-width="1.3" d="M180,-929.84C180,-923.19 180,-710.4 180,-710.4 180,-710.4 334.88,-710.4 334.88,-710.4"/>
<polygon fill="#b45309" stroke="#b45309" stroke-width="1.3" points="334.88,-713.2 342.88,-710.4 334.88,-707.6 334.88,-713.2"/>
</g>
<!-- entreprise_commentaires&#45;&gt;entreprises -->
<g id="edge14" class="edge">
<title>entreprise_commentaires:entreprise_id&#45;&gt;entreprises:id</title>
<path fill="none" stroke="#b45309" stroke-width="1.3" d="M173,-940.82C173,-878.68 173,-578.5 173,-578.5 173,-578.5 543.43,-578.5 543.43,-578.5"/>
<polygon fill="#b45309" stroke="#b45309" stroke-width="1.3" points="543.43,-581.3 551.43,-578.5 543.43,-575.7 543.43,-581.3"/>
</g>
<!-- cookie_consents -->
<g id="node13" class="node">
<title>cookie_consents</title>
<polygon fill="white" stroke="transparent" points="35.5,-604 35.5,-824 147.5,-824 147.5,-604 35.5,-604"/>
<polygon fill="#1e3a8a" stroke="transparent" points="35.5,-802 35.5,-824 147.5,-824 147.5,-802 35.5,-802"/>
<polygon fill="none" stroke="black" points="35.5,-802 35.5,-824 147.5,-824 147.5,-802 35.5,-802"/>
<text text-anchor="start" x="40.5" y="-811.2" font-family="Helvetica,sans-Serif" font-weight="bold" font-size="11.00" fill="white">cookie_consents</text>
<polygon fill="none" stroke="black" points="35.5,-780 35.5,-802 147.5,-802 147.5,-780 35.5,-780"/>
<text text-anchor="start" x="40.5" y="-789.2" font-family="Helvetica,sans-Serif" font-weight="bold" font-size="11.00">PK id</text>
<polygon fill="none" stroke="black" points="35.5,-758 35.5,-780 147.5,-780 147.5,-758 35.5,-758"/>
<text text-anchor="start" x="40.5" y="-766.2" font-family="Helvetica,sans-Serif" font-size="11.00">consent_token (U)</text>
<polygon fill="none" stroke="black" points="35.5,-736 35.5,-758 147.5,-758 147.5,-736 35.5,-736"/>
<text text-anchor="start" x="40.5" y="-744.2" font-family="Helvetica,sans-Serif" font-size="11.00"># user_id</text>
<polygon fill="none" stroke="black" points="35.5,-714 35.5,-736 147.5,-736 147.5,-714 35.5,-714"/>
<text text-anchor="start" x="40.5" y="-722.2" font-family="Helvetica,sans-Serif" font-size="11.00">essential</text>
<polygon fill="none" stroke="black" points="35.5,-692 35.5,-714 147.5,-714 147.5,-692 35.5,-692"/>
<text text-anchor="start" x="40.5" y="-700.2" font-family="Helvetica,sans-Serif" font-size="11.00">analytics</text>
<polygon fill="none" stroke="black" points="35.5,-670 35.5,-692 147.5,-692 147.5,-670 35.5,-670"/>
<text text-anchor="start" x="40.5" y="-678.2" font-family="Helvetica,sans-Serif" font-size="11.00">marketing</text>
<polygon fill="none" stroke="black" points="35.5,-648 35.5,-670 147.5,-670 147.5,-648 35.5,-648"/>
<text text-anchor="start" x="40.5" y="-656.2" font-family="Helvetica,sans-Serif" font-size="11.00">consented_at</text>
<polygon fill="none" stroke="black" points="35.5,-626 35.5,-648 147.5,-648 147.5,-626 35.5,-626"/>
<text text-anchor="start" x="40.5" y="-634.2" font-family="Helvetica,sans-Serif" font-size="11.00">created_at</text>
<polygon fill="none" stroke="black" points="35.5,-604 35.5,-626 147.5,-626 147.5,-604 35.5,-604"/>
<text text-anchor="start" x="40.5" y="-612.2" font-family="Helvetica,sans-Serif" font-size="11.00">updated_at</text>
</g>
<!-- cookie_consents&#45;&gt;users -->
<g id="edge16" class="edge">
<title>cookie_consents:user_id&#45;&gt;users:id</title>
<path fill="none" stroke="#b45309" stroke-width="1.3" d="M91.55,-673.6C91.55,-673.6 334.95,-673.6 334.95,-673.6"/>
<polygon fill="#b45309" stroke="#b45309" stroke-width="1.3" points="334.95,-676.4 342.95,-673.6 334.95,-670.8 334.95,-676.4"/>
</g>
<!-- password_reset_requests -->
<g id="node14" class="node">
<title>password_reset_requests</title>
<polygon fill="white" stroke="transparent" points="8,-1402 8,-1578 175,-1578 175,-1402 8,-1402"/>
<polygon fill="#1e3a8a" stroke="transparent" points="8.5,-1556 8.5,-1578 175.5,-1578 175.5,-1556 8.5,-1556"/>
<polygon fill="none" stroke="black" points="8.5,-1556 8.5,-1578 175.5,-1578 175.5,-1556 8.5,-1556"/>
<text text-anchor="start" x="13.5" y="-1565.2" font-family="Helvetica,sans-Serif" font-weight="bold" font-size="11.00" fill="white">password_reset_requests</text>
<polygon fill="none" stroke="black" points="8.5,-1534 8.5,-1556 175.5,-1556 175.5,-1534 8.5,-1534"/>
<text text-anchor="start" x="13.5" y="-1543.2" font-family="Helvetica,sans-Serif" font-weight="bold" font-size="11.00">PK id</text>
<polygon fill="none" stroke="black" points="8.5,-1512 8.5,-1534 175.5,-1534 175.5,-1512 8.5,-1512"/>
<text text-anchor="start" x="13.5" y="-1520.2" font-family="Helvetica,sans-Serif" font-size="11.00">user_id</text>
<polygon fill="none" stroke="black" points="8.5,-1490 8.5,-1512 175.5,-1512 175.5,-1490 8.5,-1490"/>
<text text-anchor="start" x="13.5" y="-1498.2" font-family="Helvetica,sans-Serif" font-size="11.00">email</text>
<polygon fill="none" stroke="black" points="8.5,-1468 8.5,-1490 175.5,-1490 175.5,-1468 8.5,-1468"/>
<text text-anchor="start" x="13.5" y="-1476.2" font-family="Helvetica,sans-Serif" font-size="11.00">status</text>
<polygon fill="none" stroke="black" points="8.5,-1446 8.5,-1468 175.5,-1468 175.5,-1446 8.5,-1446"/>
<text text-anchor="start" x="13.5" y="-1454.2" font-family="Helvetica,sans-Serif" font-size="11.00">created_at</text>
<polygon fill="none" stroke="black" points="8.5,-1424 8.5,-1446 175.5,-1446 175.5,-1424 8.5,-1424"/>
<text text-anchor="start" x="13.5" y="-1432.2" font-family="Helvetica,sans-Serif" font-size="11.00">expires_at</text>
<polygon fill="none" stroke="black" points="8.5,-1402 8.5,-1424 175.5,-1424 175.5,-1402 8.5,-1402"/>
<text text-anchor="start" x="13.5" y="-1410.2" font-family="Helvetica,sans-Serif" font-size="11.00">processed_at</text>
</g>
</g>
</svg>
